<svg width="24" height="22" viewBox="0 0 24 22" fill="none" xmlns="http://www.w3.org/2000/svg">
<path d="M0 22V19.5556H21.6V22H0ZM21.6 6.11111V2.44444H19.2V6.11111H21.6ZM21.6 0C22.2365 0 22.847 0.257539 23.2971 0.715961C23.7471 1.17438 24 1.79614 24 2.44444V6.11111C24 6.75942 23.7471 7.38117 23.2971 7.83959C22.847 8.29802 22.2365 8.55556 21.6 8.55556H19.2V12.2222C19.2 13.5188 18.6943 14.7623 17.7941 15.6792C16.8939 16.596 15.673 17.1111 14.4 17.1111H7.2C5.92696 17.1111 4.70606 16.596 3.80589 15.6792C2.90571 14.7623 2.4 13.5188 2.4 12.2222V0H21.6ZM16.8 2.44444H4.8V12.2222C4.8 12.8705 5.05286 13.4923 5.50294 13.9507C5.95303 14.4091 6.56348 14.6667 7.2 14.6667H14.4C15.0365 14.6667 15.647 14.4091 16.0971 13.9507C16.5471 13.4923 16.8 12.8705 16.8 12.2222V2.44444Z" fill="white"/>
</svg>
